<svg xmlns="http://www.w3.org/2000/svg" viewBox="0 0 221.2 25.1" preserveAspectRatio="xMidYMin slice" >
  <g>
    <path d="M10.7 5C7.7 4.2 0 1.8 0 0v3.4c0 1 2.7 2.3 5.4 3.4l.3-.1z"></path>
    <path d="M13.1 9.2a46.48 46.48 0 0 1 8.2 3A8.48 8.48 0 0 0 23 11a.65.65 0 0 0 0-1.1 13.66 13.66 0 0 0-4.7-2.3l-.3.1zM18 18.4L13 20c3 .9 10.7 3.3 10.7 5.1v-3.4c0-.3-.3-.7-.8-1.1l-1.1-.7-.5-.2-1.5-.7-1.1-.5-.6-.2c.2.1.1.1-.1.1z"></path>
    <path d="M13.1 15.9l-1.2.3s-2.7.7-5.5 1.7l-.9.3c-2.8 1-5.4 2.3-5.4 3.4V25c0-.5.7-1.2 1.8-1.7l.7-.4a70.88 70.88 0 0 1 8.2-3l1.2-.3s2.7-.7 5.5-1.7l.9-.3c2.8-1 5.4-2.3 5.4-3.4v-3.3c-.1 1.7-7.7 4.1-10.7 5zM13.1 5a3.14 3.14 0 0 1-1.1.3S9.3 6 6.4 7.1l-.9.3C2.7 8.4.1 9.7.1 10.8v3.4c0-.5.7-1.2 1.8-1.7l.7-.4a70.88 70.88 0 0 1 8.2-3l1.2-.3s2.7-.7 5.5-1.7l.9-.3c2.8-1 5.4-2.3 5.4-3.4V0c-.1 1.8-7.7 4.2-10.7 5z"></path>
    <path d="M10.7 15.9a46.48 46.48 0 0 1-8.2-3 8.48 8.48 0 0 0-1.7 1.2.65.65 0 0 0 0 1.1 13.66 13.66 0 0 0 4.7 2.3l.3-.1z"></path>
  </g>
</svg>
