<svg xmlns="http://www.w3.org/2000/svg" viewBox="0 0 221.2 25.1" preserveAspectRatio="xMidYMin slice" >
  <g>
    <path d="M10.7 5C7.7 4.2 0 1.8 0 0v3.4c0 1 2.7 2.3 5.4 3.4l.3-.1z"></path>
    <path d="M13.1 9.2a46.48 46.48 0 0 1 8.2 3A8.48 8.48 0 0 0 23 11a.65.65 0 0 0 0-1.1 13.66 13.66 0 0 0-4.7-2.3l-.3.1zM18 18.4L13 20c3 .9 10.7 3.3 10.7 5.1v-3.4c0-.3-.3-.7-.8-1.1l-1.1-.7-.5-.2-1.5-.7-1.1-.5-.6-.2c.2.1.1.1-.1.1z"></path>
    <path d="M13.1 15.9l-1.2.3s-2.7.7-5.5 1.7l-.9.3c-2.8 1-5.4 2.3-5.4 3.4V25c0-.5.7-1.2 1.8-1.7l.7-.4a70.88 70.88 0 0 1 8.2-3l1.2-.3s2.7-.7 5.5-1.7l.9-.3c2.8-1 5.4-2.3 5.4-3.4v-3.3c-.1 1.7-7.7 4.1-10.7 5zM13.1 5a3.14 3.14 0 0 1-1.1.3S9.3 6 6.4 7.1l-.9.3C2.7 8.4.1 9.7.1 10.8v3.4c0-.5.7-1.2 1.8-1.7l.7-.4a70.88 70.88 0 0 1 8.2-3l1.2-.3s2.7-.7 5.5-1.7l.9-.3c2.8-1 5.4-2.3 5.4-3.4V0c-.1 1.8-7.7 4.2-10.7 5z"></path>
    <path d="M10.7 15.9a46.48 46.48 0 0 1-8.2-3 8.48 8.48 0 0 0-1.7 1.2.65.65 0 0 0 0 1.1 13.66 13.66 0 0 0 4.7 2.3l.3-.1z"></path>
    <path d="M41.2 17.5L36.6 6.4h-2l.7.9.3.7.1.1 4.8 11.3h1.3l5.6-13h-1.5l-4.7 11.1M52 6.4h-1a3.06 3.06 0 0 1 1 1.8v11.1h1.4V6.4H52M60.5 12.9V7.7h4c2.1 0 3.3 1 3.3 2.6S66.4 13 64.5 13h-4zm8.8-2.7a4 4 0 0 0-1-2.6 5.18 5.18 0 0 0-3.7-1.3h-6.5a3.56 3.56 0 0 1 1 1.5v11.3h1.4v-5h3.7l3.8 5h1.8l-4-5.2c2-.3 3.5-1.5 3.5-3.7zM73.3 6.4h-1a3.08 3.08 0 0 1 1 1.3h4.3v11.6H79V7.7h4.3V6.4h-10M97.1 13.8c0 2.8-1.5 4.3-3.9 4.3s-3.9-1.5-3.9-4.3V6.4h-2.5a4.27 4.27 0 0 1 1 1.6v6c0 3.6 2.2 5.6 5.4 5.6s5.4-1.9 5.4-5.7V6.4h-1.4l-.1 7.4M106 14.6l3-6.6 2.9 6.6zm2.3-8.3l-5.9 13h1.5l1.5-3.4h7l1.5 3.4h1.5l-5.9-13zM121.4 6.4H119a3.94 3.94 0 0 1 1 1.4v11.5h8.7v-1.4h-7.2V6.4M150.7 13.4h7.1v-1.3h-7.1V7.6h7.9V6.4h-10.3a3.74 3.74 0 0 1 1 1.4v11.4h9.4v-1.3h-8v-4.5M166 14.6l3-6.6 2.9 6.6zm2.3-8.3l-5.9 13h1.5l1.5-3.4h7l1.5 3.4h1.5l-5.9-13zM181.4 6.4H179a5.46 5.46 0 0 1 1 1.4v11.4h8.7v-1.3h-7.2V6.4M190.5 6.4h-1a3 3 0 0 1 1 1.4h4.3v11.6h1.4V7.7h4.3V6.4h-10M214.1 6.4v5.7h-7.4V6.4h-2.5a3.28 3.28 0 0 1 1 1.6v11.3h1.4v-5.9h7.5v5.8h1.4V6.4h-1.4M142.3 6.4v5.7h-7.5V6.4h-2.5a3.28 3.28 0 0 1 1 1.6v11.3h1.4v-5.9h7.5v5.8h1.4V6.4h-1.3M219.8 7l-.3-.1h-.5v.6h.5l.3-.1.1-.2zm.3.6l-.3.2.5.7h-.4l-.4-.6h-.4v.6h-.3V6.6h.8l.5.2.2.4-.2.4zm.8-.6l-.3-.5a.85.85 0 0 0-.5-.3l-.6-.1-.6.1-.5.3a.85.85 0 0 0-.3.5l-.1.6.1.6.3.5a.85.85 0 0 0 .5.3l.6.1.6-.1.5-.3a.85.85 0 0 0 .3-.5l.1-.6zm.2 1.3a2 2 0 0 1-.4.6l-.6.4-.7.1-.7-.1-.6-.4-.4-.6-.1-.7.1-.7.4-.6.6-.4h.7l.7.1.6.4.4.6.1.7z"></path>
  </g>
</svg>
